<svg xmlns="http://www.w3.org/2000/svg" xmlns:xlink="http://www.w3.org/1999/xlink" viewBox="0,0,256,256" width="48px" height="48px"><g transform="translate(55.04,55.04) scale(0.57,0.57)"><g fill-opacity="0" fill="#707070" fill-rule="nonzero" stroke="none" stroke-width="1" stroke-linecap="butt" stroke-linejoin="miter" stroke-miterlimit="10" stroke-dasharray="" stroke-dashoffset="0" font-family="none" font-weight="none" font-size="none" text-anchor="none" style="mix-blend-mode: normal"><path d="M-96.5614,352.5614v-449.12281h449.12281v449.12281z" id="bgRectangle"></path></g><g fill="#ffffff" fill-rule="nonzero" stroke="none" stroke-width="1" stroke-linecap="butt" stroke-linejoin="miter" stroke-miterlimit="10" stroke-dasharray="" stroke-dashoffset="0" font-family="none" font-weight="none" font-size="none" text-anchor="none" style="mix-blend-mode: normal"><path d="M128,349.86667c-122.53358,0 -221.86667,-99.33309 -221.86667,-221.86667v0c0,-122.53358 99.33309,-221.86667 221.86667,-221.86667h0c122.53358,0 221.86667,99.33309 221.86667,221.86667v0c0,122.53358 -99.33309,221.86667 -221.86667,221.86667z" id="shape"></path></g><g fill="#000052" fill-rule="nonzero" stroke="none" stroke-width="1" stroke-linecap="butt" stroke-linejoin="miter" stroke-miterlimit="10" stroke-dasharray="" stroke-dashoffset="0" font-family="none" font-weight="none" font-size="none" text-anchor="none" style="mix-blend-mode: normal"><g transform="scale(5.33333,5.33333)"><path d="M40,43h-11c-2.209,0 -4,-1.791 -4,-4v-9c0,-2.209 1.791,-4 4,-4h11c2.209,0 4,1.791 4,4v9c0,2.209 -1.791,4 -4,4zM29,39h11v-9h-11z"></path><path d="M19,43h-11c-2.209,0 -4,-1.791 -4,-4v-9c0,-2.209 1.791,-4 4,-4h11c2.209,0 4,1.791 4,4v0h-15v9h11v-3h-5c-1.657,0 -3,-1.343 -3,-3v0h12v6c0,2.209 -1.791,4 -4,4z"></path><path d="M18,22h-10c-2.209,0 -4,-1.791 -4,-4v-9c0,-2.209 1.791,-4 4,-4h10c2.209,0 4,1.791 4,4v0h-14v9h14v0c0,2.209 -1.791,4 -4,4z"></path><path d="M40,22h-11c-2.209,0 -4,-1.791 -4,-4v0h15v-2.5h-11c-2.209,0 -4,-1.791 -4,-4v-2.5c0,-2.209 1.791,-4 4,-4h11c2.209,0 4,1.791 4,4v0h-15v2.5h11c2.209,0 4,1.791 4,4v2.5c0,2.209 -1.791,4 -4,4z"></path></g></g></g></svg>