<svg xmlns="http://www.w3.org/2000/svg" xmlns:xlink="http://www.w3.org/1999/xlink" viewBox="0,0,256,256" width="48px" height="48px"><g fill-opacity="0" fill="#707070" fill-rule="nonzero" stroke="none" stroke-width="1" stroke-linecap="butt" stroke-linejoin="miter" stroke-miterlimit="10" stroke-dasharray="" stroke-dashoffset="0" font-family="none" font-weight="none" font-size="none" text-anchor="none" style="mix-blend-mode: normal"><path d="M0,256v-256h256v256z" id="bgRectangle"></path></g><g fill="#ffffff" fill-rule="nonzero" stroke="none" stroke-width="1" stroke-linecap="butt" stroke-linejoin="miter" stroke-miterlimit="10" stroke-dasharray="" stroke-dashoffset="0" font-family="none" font-weight="none" font-size="none" text-anchor="none" style="mix-blend-mode: normal"><g transform="scale(5.12,5.12)"><path d="M25,2c-12.682,0 -23,10.317 -23,23c0,12.683 10.318,23 23,23c12.682,0 23,-10.317 23,-23c0,-12.683 -10.318,-23 -23,-23zM33.206,35.972c-0.112,0.56 -0.669,0.912 -1.223,0.774l-6.45,-1.612c-0.332,-0.083 -0.598,-0.33 -0.706,-0.654l-0.388,-1.163c-0.216,-0.648 0.266,-1.317 0.948,-1.317h7.393c0.631,0 1.104,0.577 0.981,1.196zM34.116,29.132c-0.067,0.497 -0.49,0.868 -0.991,0.868h-2.211c-0.517,0 -0.949,-0.394 -0.996,-0.909l-0.918,-10.091h-1v10c0,0.552 -0.448,1 -1,1h-1.105c-0.51,0 -0.938,-0.383 -0.994,-0.89l-0.901,-8.11h-1v8c0,0.552 -0.448,1 -1,1h-1.117c-0.504,0 -0.93,-0.376 -0.992,-0.876l-0.878,-7.122l-1.013,-0.002v7c0,0.552 -0.448,1 -1,1h-1.18c-0.477,0 -0.887,-0.336 -0.981,-0.804l-1.689,-8.447c-0.088,-0.442 0.13,-0.889 0.533,-1.091l12.999,-6.5c0.205,-0.103 0.44,-0.132 0.664,-0.082l7.758,1.724c0.507,0.113 0.843,0.594 0.774,1.108z"></path></g></g></svg>